<svg xmlns="http://www.w3.org/2000/svg" xmlns:xlink="http://www.w3.org/1999/xlink" width="500" zoomAndPan="magnify" viewBox="0 0 375 374.999991" height="500" preserveAspectRatio="xMidYMid meet" version="1.0"><defs><clipPath id="e2cf5c190d"><path d="M 48.972656 37.5 L 349 37.5 L 349 337 L 48.972656 337 Z M 48.972656 37.5 " clip-rule="nonzero"/></clipPath><clipPath id="02d1bd86bb"><path d="M 328.96875 336.96875 L 68.449219 336.96875 C 57.71875 336.96875 48.972656 328.222656 48.972656 317.492188 L 48.972656 56.972656 C 48.972656 46.242188 57.71875 37.5 68.449219 37.5 L 328.96875 37.5 C 339.699219 37.5 348.441406 46.242188 348.441406 56.972656 L 348.441406 317.492188 C 348.441406 328.222656 339.699219 336.96875 328.96875 336.96875 " clip-rule="nonzero"/></clipPath><clipPath id="f0a569dd84"><path d="M 53 136 L 86 136 L 86 159 L 53 159 Z M 53 136 " clip-rule="nonzero"/></clipPath><clipPath id="ce412611d1"><path d="M 18.75 163.875 L 274.128906 43.519531 L 358.210938 221.9375 L 102.832031 342.289062 Z M 18.75 163.875 " clip-rule="nonzero"/></clipPath><clipPath id="f546e225f3"><path d="M 18.75 163.875 L 274.128906 43.519531 L 358.210938 221.9375 L 102.832031 342.289062 Z M 18.75 163.875 " clip-rule="nonzero"/></clipPath><clipPath id="559d1c3dc6"><path d="M 54 73 L 350 73 L 350 333 L 54 333 Z M 54 73 " clip-rule="nonzero"/></clipPath><clipPath id="4eb49e55cf"><path d="M 18.75 163.875 L 274.128906 43.519531 L 358.210938 221.9375 L 102.832031 342.289062 Z M 18.75 163.875 " clip-rule="nonzero"/></clipPath><clipPath id="118f3e5baa"><path d="M 18.75 163.875 L 274.128906 43.519531 L 358.210938 221.9375 L 102.832031 342.289062 Z M 18.75 163.875 " clip-rule="nonzero"/></clipPath><clipPath id="6fcfe16142"><path d="M 213 61 L 246 61 L 246 83 L 213 83 Z M 213 61 " clip-rule="nonzero"/></clipPath><clipPath id="1acae11be0"><path d="M 18.75 163.875 L 274.128906 43.519531 L 358.210938 221.9375 L 102.832031 342.289062 Z M 18.75 163.875 " clip-rule="nonzero"/></clipPath><clipPath id="ccacbda3d1"><path d="M 18.75 163.875 L 274.128906 43.519531 L 358.210938 221.9375 L 102.832031 342.289062 Z M 18.75 163.875 " clip-rule="nonzero"/></clipPath></defs><g clip-path="url(#e2cf5c190d)"><g clip-path="url(#02d1bd86bb)"><path fill="#5271ff" d="M 48.972656 37.5 L 349.039062 37.5 L 349.039062 337.5625 L 48.972656 337.5625 Z M 48.972656 37.5 " fill-opacity="1" fill-rule="nonzero"/></g></g><g clip-path="url(#f0a569dd84)"><g clip-path="url(#ce412611d1)"><g clip-path="url(#f546e225f3)"><path fill="#ffffff" d="M 85.8125 143.125 L 84.15625 139.605469 C 82.761719 136.648438 79.234375 135.375 76.289062 136.761719 L 57.160156 145.777344 C 54.210938 147.167969 52.949219 150.699219 54.34375 153.65625 L 56.53125 158.296875 C 58.199219 155.859375 60.167969 153.664062 62.554688 151.769531 C 71.273438 144.871094 79.695312 143.167969 85.8125 143.125 Z M 85.8125 143.125 " fill-opacity="1" fill-rule="nonzero"/></g></g></g><g clip-path="url(#559d1c3dc6)"><g clip-path="url(#4eb49e55cf)"><g clip-path="url(#118f3e5baa)"><path fill="#ffffff" d="M 299.253906 118.476562 C 274.917969 88.199219 256.164062 70.21875 237.886719 74.132812 C 219.949219 77.976562 215.066406 91.140625 214.867188 91.699219 C 214.53125 92.632812 213.636719 93.257812 212.648438 93.238281 C 212.359375 93.234375 183.433594 92.914062 149.003906 109.140625 C 114.578125 125.363281 96.410156 147.878906 96.230469 148.101562 C 95.609375 148.886719 94.554688 149.175781 93.621094 148.828125 C 93.449219 148.765625 92 148.261719 89.65625 147.960938 C 89.65625 147.960938 89.65625 147.960938 89.652344 147.964844 C 84.574219 147.308594 75.269531 147.613281 65.429688 155.40625 C 50.777344 167.011719 52.707031 192.921875 60.566406 230.964844 C 66.085938 257.675781 82.640625 297.445312 92.015625 318.777344 C 96.035156 327.925781 105.390625 333.421875 115.292969 332.453125 C 125.734375 331.433594 134.125 323.457031 135.6875 313.058594 L 141.894531 271.710938 C 143.421875 261.539062 149.875 252.851562 159.160156 248.472656 L 249.996094 205.664062 C 259.28125 201.289062 270.09375 201.839844 278.910156 207.140625 L 314.75 228.671875 C 323.761719 234.085938 335.25 232.695312 342.6875 225.285156 C 349.738281 218.265625 351.457031 207.550781 346.960938 198.632812 C 336.480469 177.820312 316.34375 139.734375 299.253906 118.476562 Z M 80.285156 179.734375 L 96.683594 172.007812 L 105.726562 191.199219 L 101.234375 202.921875 L 89.332031 198.925781 Z M 95.210938 228.035156 L 76.082031 237.050781 L 72.207031 228.824219 L 68.328125 220.601562 L 87.460938 211.585938 L 99.171875 216.117188 Z M 131.648438 245.992188 L 123.453125 249.855469 L 115.253906 253.71875 L 106.207031 234.53125 L 110.703125 222.804688 L 122.605469 226.800781 Z M 139.726562 196.902344 L 143.605469 205.128906 L 124.472656 214.144531 L 112.761719 209.613281 L 116.722656 197.695312 L 135.851562 188.679688 Z M 209.347656 180.679688 L 165.769531 201.214844 L 159.535156 187.984375 L 203.109375 167.445312 Z M 197.53125 155.601562 L 153.953125 176.140625 L 147.714844 162.90625 L 191.292969 142.371094 Z M 238.214844 164.40625 C 231.785156 167.4375 224.113281 164.664062 221.074219 158.21875 C 218.035156 151.769531 220.78125 144.085938 227.210938 141.058594 C 233.636719 138.027344 241.3125 140.796875 244.351562 147.246094 C 247.390625 153.695312 244.640625 161.378906 238.214844 164.40625 Z M 273.277344 178.96875 C 266.847656 182 259.175781 179.226562 256.136719 172.777344 C 253.097656 166.328125 255.84375 158.648438 262.273438 155.617188 C 268.699219 152.589844 276.375 155.359375 279.414062 161.808594 C 282.453125 168.257812 279.707031 175.9375 273.277344 178.96875 Z M 250.355469 128.476562 C 243.925781 131.507812 236.253906 128.738281 233.214844 122.289062 C 230.175781 115.839844 232.921875 108.15625 239.351562 105.128906 C 245.78125 102.097656 253.453125 104.871094 256.492188 111.320312 C 259.53125 117.765625 256.785156 125.449219 250.355469 128.476562 Z M 286.984375 142.300781 C 280.554688 145.332031 272.882812 142.558594 269.84375 136.113281 C 266.804688 129.664062 269.550781 121.980469 275.980469 118.953125 C 282.410156 115.921875 290.082031 118.691406 293.121094 125.140625 C 296.160156 131.589844 293.410156 139.273438 286.984375 142.300781 Z M 286.984375 142.300781 " fill-opacity="1" fill-rule="nonzero"/></g></g></g><g clip-path="url(#6fcfe16142)"><g clip-path="url(#1acae11be0)"><g clip-path="url(#ccacbda3d1)"><path fill="#ffffff" d="M 236.910156 69.601562 C 239.890625 68.964844 242.839844 68.84375 245.78125 69.109375 L 243.59375 64.46875 C 242.199219 61.511719 238.671875 60.234375 235.722656 61.625 L 216.59375 70.640625 C 213.648438 72.027344 212.386719 75.5625 213.78125 78.519531 L 215.4375 82.035156 C 219.367188 77.339844 226.042969 71.929688 236.910156 69.601562 Z M 236.910156 69.601562 " fill-opacity="1" fill-rule="nonzero"/></g></g></g></svg>