<svg xmlns="http://www.w3.org/2000/svg" xmlns:xlink="http://www.w3.org/1999/xlink" width="500" zoomAndPan="magnify" viewBox="0 0 375 374.999991" height="500" preserveAspectRatio="xMidYMid meet" version="1.0"><defs><g/><clipPath id="8c8804c655"><path d="M 47.355469 151.550781 L 122 151.550781 L 122 226.214844 L 47.355469 226.214844 Z M 47.355469 151.550781 " clip-rule="nonzero"/></clipPath><clipPath id="f41304fded"><path d="M 117.023438 226.066406 L 52.203125 226.066406 C 49.53125 226.066406 47.355469 223.890625 47.355469 221.21875 L 47.355469 156.398438 C 47.355469 153.726562 49.53125 151.550781 52.203125 151.550781 L 117.023438 151.550781 C 119.695312 151.550781 121.867188 153.726562 121.867188 156.398438 L 121.867188 221.21875 C 121.867188 223.890625 119.695312 226.066406 117.023438 226.066406 " clip-rule="nonzero"/></clipPath><clipPath id="df7ffc5d3e"><path d="M 48 176 L 57 176 L 57 182 L 48 182 Z M 48 176 " clip-rule="nonzero"/></clipPath><clipPath id="6fbbf00838"><path d="M 39.835938 182.996094 L 103.378906 153.050781 L 124.300781 197.441406 L 60.757812 227.390625 Z M 39.835938 182.996094 " clip-rule="nonzero"/></clipPath><clipPath id="47e2b6b912"><path d="M 39.835938 182.996094 L 103.378906 153.050781 L 124.300781 197.441406 L 60.757812 227.390625 Z M 39.835938 182.996094 " clip-rule="nonzero"/></clipPath><clipPath id="cc33605069"><path d="M 48 160 L 123 160 L 123 225 L 48 225 Z M 48 160 " clip-rule="nonzero"/></clipPath><clipPath id="d74e2a29b7"><path d="M 39.835938 182.996094 L 103.378906 153.050781 L 124.300781 197.441406 L 60.757812 227.390625 Z M 39.835938 182.996094 " clip-rule="nonzero"/></clipPath><clipPath id="178ee4dc96"><path d="M 39.835938 182.996094 L 103.378906 153.050781 L 124.300781 197.441406 L 60.757812 227.390625 Z M 39.835938 182.996094 " clip-rule="nonzero"/></clipPath><clipPath id="0f6085c5c2"><path d="M 88 157 L 97 157 L 97 163 L 88 163 Z M 88 157 " clip-rule="nonzero"/></clipPath><clipPath id="cfd8b4a579"><path d="M 39.835938 182.996094 L 103.378906 153.050781 L 124.300781 197.441406 L 60.757812 227.390625 Z M 39.835938 182.996094 " clip-rule="nonzero"/></clipPath><clipPath id="1ecb834660"><path d="M 39.835938 182.996094 L 103.378906 153.050781 L 124.300781 197.441406 L 60.757812 227.390625 Z M 39.835938 182.996094 " clip-rule="nonzero"/></clipPath></defs><g clip-path="url(#8c8804c655)"><g clip-path="url(#f41304fded)"><path fill="#38b6ff" d="M 47.355469 151.550781 L 122.015625 151.550781 L 122.015625 226.214844 L 47.355469 226.214844 Z M 47.355469 151.550781 " fill-opacity="1" fill-rule="nonzero"/></g></g><g clip-path="url(#df7ffc5d3e)"><g clip-path="url(#6fbbf00838)"><g clip-path="url(#47e2b6b912)"><path fill="#ffffff" d="M 56.523438 177.832031 L 56.109375 176.957031 C 55.765625 176.222656 54.886719 175.90625 54.152344 176.25 L 49.394531 178.492188 C 48.660156 178.839844 48.347656 179.71875 48.691406 180.453125 L 49.238281 181.609375 C 49.652344 181 50.140625 180.457031 50.734375 179.984375 C 52.90625 178.269531 55 177.84375 56.523438 177.832031 Z M 56.523438 177.832031 " fill-opacity="1" fill-rule="nonzero"/></g></g></g><g clip-path="url(#cc33605069)"><g clip-path="url(#d74e2a29b7)"><g clip-path="url(#178ee4dc96)"><path fill="#ffffff" d="M 109.628906 171.699219 C 103.574219 164.167969 98.910156 159.695312 94.359375 160.667969 C 89.898438 161.625 88.683594 164.898438 88.632812 165.039062 C 88.550781 165.269531 88.328125 165.425781 88.082031 165.421875 C 88.007812 165.421875 80.8125 165.339844 72.246094 169.378906 C 63.679688 173.414062 59.160156 179.015625 59.113281 179.070312 C 58.960938 179.265625 58.699219 179.339844 58.464844 179.253906 C 58.421875 179.238281 58.0625 179.113281 57.480469 179.039062 C 57.480469 179.039062 57.480469 179.039062 57.476562 179.039062 C 56.214844 178.875 53.898438 178.949219 51.449219 180.890625 C 47.804688 183.777344 48.285156 190.222656 50.242188 199.6875 C 51.613281 206.335938 55.734375 216.230469 58.066406 221.539062 C 59.066406 223.816406 61.394531 225.183594 63.859375 224.941406 C 66.457031 224.6875 68.542969 222.703125 68.933594 220.117188 L 70.476562 209.828125 C 70.855469 207.296875 72.460938 205.136719 74.773438 204.046875 L 97.375 193.394531 C 99.683594 192.304688 102.375 192.441406 104.566406 193.761719 L 113.484375 199.117188 C 115.726562 200.464844 118.585938 200.121094 120.4375 198.277344 C 122.191406 196.53125 122.617188 193.863281 121.5 191.644531 C 118.894531 186.464844 113.882812 176.992188 109.628906 171.699219 Z M 55.148438 186.941406 L 59.226562 185.019531 L 61.476562 189.796875 L 60.359375 192.710938 L 57.398438 191.71875 Z M 58.863281 198.960938 L 54.101562 201.203125 L 52.171875 197.109375 L 56.933594 194.867188 L 59.847656 195.996094 Z M 67.925781 203.429688 L 63.847656 205.351562 L 61.597656 200.578125 L 62.714844 197.660156 L 65.675781 198.652344 Z M 69.9375 191.214844 L 70.902344 193.261719 L 66.140625 195.503906 L 63.226562 194.375 L 64.214844 191.410156 L 68.972656 189.167969 Z M 87.261719 187.175781 L 76.417969 192.289062 L 74.867188 188.996094 L 85.707031 183.886719 Z M 84.320312 180.9375 L 73.476562 186.046875 L 71.925781 182.753906 L 82.769531 177.644531 Z M 94.441406 183.128906 C 92.84375 183.882812 90.933594 183.191406 90.175781 181.589844 C 89.421875 179.984375 90.105469 178.074219 91.703125 177.320312 C 93.304688 176.566406 95.214844 177.253906 95.96875 178.859375 C 96.726562 180.464844 96.042969 182.375 94.441406 183.128906 Z M 103.167969 186.753906 C 101.566406 187.503906 99.65625 186.816406 98.902344 185.210938 C 98.144531 183.605469 98.828125 181.695312 100.429688 180.941406 C 102.027344 180.1875 103.9375 180.878906 104.695312 182.480469 C 105.449219 184.085938 104.765625 186 103.167969 186.753906 Z M 97.464844 174.1875 C 95.863281 174.941406 93.953125 174.253906 93.199219 172.648438 C 92.441406 171.042969 93.125 169.132812 94.726562 168.378906 C 96.324219 167.625 98.234375 168.316406 98.992188 169.917969 C 99.746094 171.523438 99.0625 173.433594 97.464844 174.1875 Z M 106.578125 177.628906 C 104.976562 178.382812 103.070312 177.691406 102.3125 176.089844 C 101.554688 174.484375 102.238281 172.574219 103.839844 171.820312 C 105.4375 171.066406 107.347656 171.753906 108.105469 173.359375 C 108.859375 174.964844 108.175781 176.875 106.578125 177.628906 Z M 106.578125 177.628906 " fill-opacity="1" fill-rule="nonzero"/></g></g></g><g clip-path="url(#0f6085c5c2)"><g clip-path="url(#cfd8b4a579)"><g clip-path="url(#1ecb834660)"><path fill="#ffffff" d="M 94.117188 159.539062 C 94.859375 159.382812 95.59375 159.351562 96.324219 159.417969 L 95.78125 158.261719 C 95.433594 157.527344 94.554688 157.210938 93.824219 157.554688 L 89.0625 159.796875 C 88.332031 160.144531 88.015625 161.023438 88.363281 161.757812 L 88.773438 162.632812 C 89.753906 161.464844 91.414062 160.117188 94.117188 159.539062 Z M 94.117188 159.539062 " fill-opacity="1" fill-rule="nonzero"/></g></g></g><g fill="#000000" fill-opacity="1"><g transform="translate(123.811696, 211.587101)"><g><path d="M 12.566406 -27.785156 L 12.566406 -34.453125 C 12.566406 -35.632812 12.328125 -36.457031 11.738281 -37.167969 C 11.445312 -37.460938 10.972656 -37.640625 10.441406 -37.640625 C 9.320312 -37.640625 8.789062 -36.8125 8.554688 -36.046875 C 8.378906 -35.574219 8.316406 -35.042969 8.316406 -34.453125 L 8.316406 -8.378906 C 8.316406 -7.136719 8.613281 -6.3125 9.203125 -5.664062 C 9.5 -5.367188 9.910156 -5.191406 10.441406 -5.191406 C 11.5625 -5.191406 12.09375 -5.898438 12.328125 -6.785156 C 12.507812 -7.199219 12.566406 -7.726562 12.566406 -8.378906 L 12.566406 -16.222656 L 10.027344 -16.222656 L 10.027344 -21.59375 L 18.9375 -21.59375 L 18.9375 0 L 15.160156 0 L 14.394531 -2.066406 C 13.214844 -0.589844 11.503906 0.472656 9.4375 0.472656 C 7.375 0.472656 5.957031 -0.0585938 4.898438 -1.003906 C 3.835938 -1.886719 3.125 -3.007812 2.65625 -4.1875 C 2.125 -5.546875 1.886719 -7.136719 1.945312 -8.910156 L 1.945312 -34.453125 C 2.003906 -36.164062 2.359375 -37.757812 3.007812 -39.113281 C 3.539062 -40.292969 4.304688 -41.472656 5.488281 -42.359375 C 6.667969 -43.242188 8.316406 -43.832031 10.441406 -43.832031 C 12.566406 -43.832031 14.160156 -43.242188 15.339844 -42.359375 C 16.519531 -41.472656 17.34375 -40.292969 17.875 -39.113281 C 18.523438 -37.757812 18.878906 -36.164062 18.9375 -34.453125 L 18.9375 -27.785156 Z M 12.566406 -27.785156 "/></g></g></g><g fill="#000000" fill-opacity="1"><g transform="translate(145.048873, 211.587101)"><g><path d="M 0.589844 0 L 7.136719 -43.359375 L 14.925781 -43.359375 L 21.472656 0 L 15.28125 0 L 14.101562 -8.847656 L 7.964844 -8.847656 L 6.785156 0 Z M 11.386719 -29.261719 L 11.210938 -30.382812 L 10.855469 -30.382812 L 10.679688 -29.261719 L 8.847656 -15.574219 L 13.214844 -15.574219 Z M 11.386719 -29.261719 "/></g></g></g><g fill="#000000" fill-opacity="1"><g transform="translate(167.111935, 211.587101)"><g><path d="M 12.917969 0 L 8.847656 -27.253906 L 8.613281 -29.085938 L 8.257812 -29.085938 L 8.257812 0 L 2.359375 0 L 2.359375 -43.359375 L 10.148438 -43.359375 L 13.921875 -23.539062 L 14.21875 -21.238281 L 14.335938 -21.238281 L 14.628906 -23.539062 L 18.40625 -43.359375 L 26.195312 -43.359375 L 26.195312 0 L 20.292969 0 L 20.292969 -29.085938 L 19.941406 -29.085938 L 19.703125 -27.253906 L 15.632812 0 Z M 12.917969 0 "/></g></g></g><g fill="#000000" fill-opacity="1"><g transform="translate(195.66413, 211.587101)"><g><path d="M 2.359375 -43.359375 L 16.929688 -43.359375 L 16.929688 -36.8125 L 8.730469 -36.8125 L 8.730469 -25.425781 L 14.628906 -25.425781 L 14.628906 -18.464844 L 8.730469 -18.464844 L 8.730469 -6.546875 L 16.929688 -6.546875 L 16.929688 0 L 2.359375 0 Z M 2.359375 -43.359375 "/></g></g></g><g fill="#000000" fill-opacity="1"><g transform="translate(213.774713, 211.587101)"><g/></g></g><g fill="#000000" fill-opacity="1"><g transform="translate(222.859502, 211.587101)"><g><path d="M 12.917969 -31.738281 C 12.917969 -33.15625 12.859375 -34.75 12.449219 -35.988281 C 12.035156 -37.167969 11.386719 -37.992188 10.382812 -37.992188 C 8.730469 -37.933594 8.199219 -36.222656 8.199219 -33.6875 C 8.199219 -32.210938 8.847656 -30.675781 9.792969 -29.027344 C 10.738281 -27.375 11.976562 -25.664062 13.214844 -23.832031 C 14.691406 -21.652344 16.164062 -19.410156 17.285156 -17.226562 C 18.40625 -15.042969 19.171875 -12.800781 19.171875 -10.441406 C 19.171875 -7.550781 18.703125 -4.835938 17.34375 -2.832031 C 15.988281 -0.824219 13.804688 0.472656 10.324219 0.472656 C 6.253906 0.472656 3.953125 -1.0625 2.65625 -3.421875 C 1.355469 -5.78125 1.0625 -8.910156 1.0625 -12.152344 L 7.316406 -12.742188 C 7.316406 -10.914062 7.375 -9.085938 7.847656 -7.726562 C 8.257812 -6.3125 8.96875 -5.367188 10.324219 -5.367188 C 12.210938 -5.367188 12.917969 -7.375 12.917969 -10.148438 C 12.917969 -11.5625 12.210938 -13.214844 11.269531 -14.925781 C 10.738281 -15.75 10.207031 -16.636719 9.617188 -17.523438 C 8.378906 -19.292969 7.019531 -21.296875 5.605469 -23.480469 C 4.1875 -25.664062 3.125 -27.90625 2.476562 -30.207031 C 2.125 -31.328125 1.945312 -32.507812 1.945312 -33.6875 C 1.945312 -36.046875 2.476562 -38.582031 3.835938 -40.53125 C 5.191406 -42.417969 7.257812 -43.773438 10.265625 -43.832031 C 14.101562 -43.890625 16.339844 -42.300781 17.582031 -40 C 18.820312 -37.640625 19.171875 -34.75 19.171875 -32.328125 Z M 12.917969 -31.738281 "/></g></g></g><g fill="#000000" fill-opacity="1"><g transform="translate(243.093811, 211.587101)"><g><path d="M 0.117188 -36.8125 L 0.117188 -43.359375 L 18.523438 -43.359375 L 18.523438 -36.8125 L 12.507812 -36.8125 L 12.507812 0 L 6.136719 0 L 6.136719 -36.8125 Z M 0.117188 -36.8125 "/></g></g></g><g fill="#000000" fill-opacity="1"><g transform="translate(261.735331, 211.587101)"><g><path d="M 0.589844 0 L 7.136719 -43.359375 L 14.925781 -43.359375 L 21.472656 0 L 15.28125 0 L 14.101562 -8.847656 L 7.964844 -8.847656 L 6.785156 0 Z M 11.386719 -29.261719 L 11.210938 -30.382812 L 10.855469 -30.382812 L 10.679688 -29.261719 L 8.847656 -15.574219 L 13.214844 -15.574219 Z M 11.386719 -29.261719 "/></g></g></g><g fill="#000000" fill-opacity="1"><g transform="translate(283.798394, 211.587101)"><g><path d="M 0.117188 -36.8125 L 0.117188 -43.359375 L 18.523438 -43.359375 L 18.523438 -36.8125 L 12.507812 -36.8125 L 12.507812 0 L 6.136719 0 L 6.136719 -36.8125 Z M 0.117188 -36.8125 "/></g></g></g><g fill="#000000" fill-opacity="1"><g transform="translate(302.439914, 211.587101)"><g><path d="M 2.359375 -43.359375 L 8.730469 -43.359375 L 8.730469 0 L 2.359375 0 Z M 2.359375 -43.359375 "/></g></g></g><g fill="#000000" fill-opacity="1"><g transform="translate(313.53044, 211.587101)"><g><path d="M 18.9375 -8.910156 C 18.878906 -7.136719 18.523438 -5.546875 17.875 -4.1875 C 17.34375 -3.007812 16.519531 -1.886719 15.339844 -1.003906 C 14.160156 -0.0585938 12.566406 0.472656 10.441406 0.472656 C 8.316406 0.472656 6.667969 -0.0585938 5.488281 -1.003906 C 4.304688 -1.886719 3.539062 -3.007812 3.007812 -4.1875 C 2.359375 -5.546875 2.003906 -7.136719 1.945312 -8.910156 L 1.945312 -34.453125 C 2.003906 -36.164062 2.359375 -37.757812 3.007812 -39.113281 C 3.539062 -40.292969 4.304688 -41.472656 5.488281 -42.359375 C 6.667969 -43.242188 8.316406 -43.832031 10.441406 -43.832031 C 12.566406 -43.832031 14.160156 -43.242188 15.339844 -42.359375 C 16.519531 -41.472656 17.34375 -40.292969 17.875 -39.113281 C 18.523438 -37.757812 18.878906 -36.164062 18.9375 -34.453125 Z M 12.566406 -34.453125 C 12.566406 -35.632812 12.328125 -36.457031 11.738281 -37.167969 C 11.445312 -37.460938 10.972656 -37.640625 10.441406 -37.640625 C 9.320312 -37.640625 8.789062 -36.8125 8.554688 -36.046875 C 8.378906 -35.574219 8.316406 -35.042969 8.316406 -34.453125 L 8.316406 -8.910156 C 8.316406 -7.667969 8.613281 -6.84375 9.203125 -6.195312 C 9.5 -5.898438 9.910156 -5.722656 10.441406 -5.722656 C 11.5625 -5.722656 12.09375 -6.429688 12.328125 -7.316406 C 12.507812 -7.726562 12.566406 -8.257812 12.566406 -8.910156 Z M 12.566406 -34.453125 "/></g></g></g><g fill="#000000" fill-opacity="1"><g transform="translate(334.413663, 211.587101)"><g><path d="M 9.085938 -22.59375 L 8.554688 -24.601562 L 8.199219 -24.601562 L 8.199219 0 L 2.359375 0 L 2.359375 -43.359375 L 8.023438 -43.359375 L 14.21875 -20.765625 L 14.75 -18.761719 L 15.101562 -18.761719 L 15.101562 -43.359375 L 20.941406 -43.359375 L 20.941406 0 L 15.28125 0 Z M 9.085938 -22.59375 "/></g></g></g></svg>