<svg xmlns="http://www.w3.org/2000/svg" xmlns:xlink="http://www.w3.org/1999/xlink" width="500" zoomAndPan="magnify" viewBox="0 0 375 374.999991" height="500" preserveAspectRatio="xMidYMid meet" version="1.0"><defs><clipPath id="52f4da2b06"><path d="M 117.1875 111.019531 L 267.1875 111.019531 L 267.1875 261.019531 L 117.1875 261.019531 Z M 117.1875 111.019531 " clip-rule="nonzero"/></clipPath></defs><g clip-path="url(#52f4da2b06)"><path fill="#38b6ff" d="M 192.15625 124.542969 C 212.171875 124.542969 214.535156 124.609375 222.457031 124.972656 C 229.753906 125.300781 233.730469 126.515625 236.390625 127.566406 C 239.875 128.914062 242.375 130.558594 245.003906 133.1875 C 247.632812 135.816406 249.242188 138.316406 250.625 141.796875 C 251.640625 144.429688 252.859375 148.40625 253.21875 155.734375 C 253.582031 163.65625 253.648438 166.019531 253.648438 186.035156 C 253.648438 206.050781 253.582031 208.417969 253.21875 216.339844 C 252.890625 223.632812 251.675781 227.613281 250.625 230.273438 C 249.277344 233.757812 247.632812 236.253906 245.003906 238.882812 C 242.375 241.515625 239.875 243.125 236.390625 244.503906 C 233.761719 245.523438 229.785156 246.738281 222.457031 247.101562 C 214.535156 247.460938 212.171875 247.527344 192.15625 247.527344 C 172.140625 247.527344 169.773438 247.460938 161.851562 247.101562 C 154.554688 246.773438 150.578125 245.554688 147.917969 244.503906 C 144.433594 243.15625 141.933594 241.515625 139.304688 238.882812 C 136.675781 236.253906 135.066406 233.757812 133.6875 230.273438 C 132.667969 227.644531 131.453125 223.667969 131.089844 216.339844 C 130.726562 208.417969 130.664062 206.050781 130.664062 186.035156 C 130.664062 166.019531 130.726562 163.65625 131.089844 155.734375 C 131.417969 148.4375 132.632812 144.460938 133.6875 141.796875 C 135.035156 138.316406 136.675781 135.816406 139.304688 133.1875 C 141.933594 130.558594 144.433594 128.949219 147.917969 127.566406 C 150.546875 126.550781 154.523438 125.332031 161.851562 124.972656 C 169.773438 124.609375 172.140625 124.542969 192.15625 124.542969 M 192.15625 111.035156 C 171.777344 111.035156 169.246094 111.136719 161.226562 111.496094 C 153.242188 111.859375 147.785156 113.140625 143.019531 114.980469 C 138.089844 116.886719 133.917969 119.449219 129.742188 123.625 C 125.601562 127.796875 123.039062 131.972656 121.132812 136.902344 C 119.289062 141.667969 118.007812 147.121094 117.648438 155.109375 C 117.285156 163.097656 117.1875 165.660156 117.1875 186.003906 C 117.1875 206.378906 117.285156 208.910156 117.648438 216.929688 C 118.007812 224.917969 119.289062 230.371094 121.132812 235.136719 C 123.039062 240.066406 125.601562 244.242188 129.773438 248.414062 C 133.949219 252.589844 138.125 255.152344 143.054688 257.058594 C 147.820312 258.898438 153.273438 260.179688 161.261719 260.542969 C 169.246094 260.90625 171.8125 261.003906 192.1875 261.003906 C 212.5625 261.003906 215.09375 260.90625 223.113281 260.542969 C 231.101562 260.179688 236.554688 258.898438 241.320312 257.058594 C 246.25 255.152344 250.425781 252.589844 254.601562 248.414062 C 258.773438 244.242188 261.335938 240.066406 263.242188 235.136719 C 265.085938 230.371094 266.367188 224.917969 266.726562 216.929688 C 267.089844 208.945312 267.1875 206.378906 267.1875 186.003906 C 267.1875 165.625 267.089844 163.097656 266.726562 155.078125 C 266.367188 147.089844 265.085938 141.632812 263.242188 136.867188 C 261.335938 131.9375 258.773438 127.765625 254.601562 123.589844 C 250.425781 119.417969 246.25 116.851562 241.320312 114.945312 C 236.554688 113.105469 231.101562 111.824219 223.113281 111.464844 C 215.09375 111.136719 212.53125 111.035156 192.15625 111.035156 " fill-opacity="1" fill-rule="nonzero"/></g><path fill="#38b6ff" d="M 192.15625 147.515625 C 170.890625 147.515625 153.667969 164.738281 153.667969 186.003906 C 153.667969 207.265625 170.921875 224.523438 192.1875 224.523438 C 213.453125 224.523438 230.707031 207.300781 230.707031 186.003906 C 230.671875 164.738281 213.417969 147.515625 192.15625 147.515625 M 192.15625 211.015625 C 178.351562 211.015625 167.175781 199.839844 167.175781 186.035156 C 167.175781 172.234375 178.351562 161.058594 192.15625 161.058594 C 205.957031 161.058594 217.132812 172.234375 217.132812 186.035156 C 217.164062 199.808594 205.957031 211.015625 192.15625 211.015625 " fill-opacity="1" fill-rule="nonzero"/><path fill="#38b6ff" d="M 241.191406 146.003906 C 241.191406 150.96875 237.148438 155.011719 232.183594 155.011719 C 227.222656 155.011719 223.179688 150.96875 223.179688 146.003906 C 223.179688 141.042969 227.222656 137 232.183594 137 C 237.148438 137 241.191406 141.011719 241.191406 146.003906 " fill-opacity="1" fill-rule="nonzero"/></svg>