<svg xmlns="http://www.w3.org/2000/svg" xmlns:xlink="http://www.w3.org/1999/xlink" width="500" zoomAndPan="magnify" viewBox="0 0 375 374.999991" height="500" preserveAspectRatio="xMidYMid meet" version="1.0"><defs><clipPath id="56dc4699db"><path d="M 86.800781 86.800781 L 288.550781 86.800781 L 288.550781 288.550781 L 86.800781 288.550781 Z M 86.800781 86.800781 " clip-rule="nonzero"/></clipPath></defs><g clip-path="url(#56dc4699db)"><path fill="#010101" d="M 187.632812 104.992188 C 214.550781 104.992188 217.734375 105.078125 228.386719 105.566406 C 238.203125 106.007812 243.550781 107.644531 247.132812 109.058594 C 251.816406 110.871094 255.175781 113.082031 258.710938 116.617188 C 262.25 120.152344 264.414062 123.511719 266.273438 128.199219 C 267.640625 131.734375 269.277344 137.082031 269.765625 146.941406 C 270.25 157.59375 270.339844 160.777344 270.339844 187.699219 C 270.339844 214.617188 270.25 217.800781 269.765625 228.453125 C 269.320312 238.269531 267.6875 243.617188 266.273438 247.199219 C 264.460938 251.882812 262.25 255.242188 258.710938 258.777344 C 255.175781 262.316406 251.816406 264.480469 247.132812 266.339844 C 243.59375 267.707031 238.246094 269.34375 228.386719 269.832031 C 217.734375 270.316406 214.550781 270.40625 187.632812 270.40625 C 160.710938 270.40625 157.527344 270.316406 146.875 269.832031 C 137.0625 269.386719 131.714844 267.753906 128.132812 266.339844 C 123.445312 264.527344 120.085938 262.316406 116.550781 258.777344 C 113.015625 255.242188 110.847656 251.882812 108.992188 247.199219 C 107.621094 243.660156 105.984375 238.3125 105.5 228.453125 C 105.011719 217.800781 104.925781 214.617188 104.925781 187.699219 C 104.925781 160.777344 105.011719 157.59375 105.5 146.941406 C 105.941406 137.128906 107.578125 131.777344 108.992188 128.199219 C 110.804688 123.511719 113.015625 120.152344 116.550781 116.617188 C 120.085938 113.082031 123.445312 110.914062 128.132812 109.058594 C 131.667969 107.6875 137.015625 106.050781 146.875 105.566406 C 157.527344 105.078125 160.710938 104.992188 187.632812 104.992188 M 187.632812 86.824219 C 160.226562 86.824219 156.820312 86.957031 146.035156 87.441406 C 135.292969 87.929688 127.957031 89.652344 121.546875 92.128906 C 114.914062 94.691406 109.300781 98.140625 103.6875 103.753906 C 98.117188 109.367188 94.667969 114.980469 92.105469 121.613281 C 89.628906 128.023438 87.90625 135.359375 87.417969 146.101562 C 86.933594 156.84375 86.800781 160.292969 86.800781 187.652344 C 86.800781 215.0625 86.933594 218.464844 87.417969 229.25 C 87.90625 239.992188 89.628906 247.332031 92.105469 253.738281 C 94.667969 260.371094 98.117188 265.984375 103.730469 271.597656 C 109.34375 277.210938 114.960938 280.660156 121.589844 283.222656 C 128 285.699219 135.335938 287.421875 146.078125 287.910156 C 156.820312 288.394531 160.269531 288.527344 187.675781 288.527344 C 215.082031 288.527344 218.488281 288.394531 229.273438 287.910156 C 240.015625 287.421875 247.351562 285.699219 253.761719 283.222656 C 260.394531 280.660156 266.007812 277.210938 271.621094 271.597656 C 277.234375 265.984375 280.683594 260.371094 283.246094 253.738281 C 285.722656 247.332031 287.445312 239.992188 287.933594 229.25 C 288.417969 218.507812 288.550781 215.0625 288.550781 187.652344 C 288.550781 160.246094 288.417969 156.84375 287.933594 146.058594 C 287.445312 135.316406 285.722656 127.976562 283.246094 121.566406 C 280.683594 114.9375 277.234375 109.324219 271.621094 103.710938 C 266.007812 98.09375 260.394531 94.648438 253.761719 92.082031 C 247.351562 89.609375 240.015625 87.882812 229.273438 87.398438 C 218.488281 86.957031 215.039062 86.824219 187.632812 86.824219 " fill-opacity="1" fill-rule="nonzero"/></g><path fill="#010101" d="M 187.632812 135.890625 C 159.03125 135.890625 135.867188 159.054688 135.867188 187.652344 C 135.867188 216.253906 159.074219 239.460938 187.675781 239.460938 C 216.277344 239.460938 239.484375 216.296875 239.484375 187.652344 C 239.441406 159.054688 216.230469 135.890625 187.632812 135.890625 M 187.632812 221.292969 C 169.066406 221.292969 154.035156 206.265625 154.035156 187.699219 C 154.035156 169.132812 169.066406 154.101562 187.632812 154.101562 C 206.199219 154.101562 221.226562 169.132812 221.226562 187.699219 C 221.273438 206.21875 206.199219 221.292969 187.632812 221.292969 " fill-opacity="1" fill-rule="nonzero"/><path fill="#010101" d="M 253.585938 133.855469 C 253.585938 140.53125 248.148438 145.96875 241.472656 145.96875 C 234.796875 145.96875 229.359375 140.53125 229.359375 133.855469 C 229.359375 127.183594 234.796875 121.746094 241.472656 121.746094 C 248.148438 121.746094 253.585938 127.136719 253.585938 133.855469 " fill-opacity="1" fill-rule="nonzero"/></svg>