<svg xmlns="http://www.w3.org/2000/svg" xmlns:xlink="http://www.w3.org/1999/xlink" width="500" zoomAndPan="magnify" viewBox="0 0 375 374.999991" height="500" preserveAspectRatio="xMidYMid meet" version="1.0"><defs><clipPath id="98b1ec93e0"><path d="M 110.03125 110.03125 L 265.28125 110.03125 L 265.28125 265.28125 L 110.03125 265.28125 Z M 110.03125 110.03125 " clip-rule="nonzero"/></clipPath></defs><g clip-path="url(#98b1ec93e0)"><path fill="#5271ff" d="M 187.625 124.03125 C 208.339844 124.03125 210.789062 124.097656 218.988281 124.472656 C 226.539062 124.8125 230.65625 126.070312 233.410156 127.160156 C 237.015625 128.554688 239.601562 130.253906 242.320312 132.976562 C 245.042969 135.699219 246.710938 138.285156 248.140625 141.890625 C 249.191406 144.609375 250.453125 148.726562 250.824219 156.3125 C 251.199219 164.511719 251.269531 166.960938 251.269531 187.675781 C 251.269531 208.390625 251.199219 210.839844 250.824219 219.039062 C 250.484375 226.589844 249.226562 230.707031 248.140625 233.460938 C 246.742188 237.066406 245.042969 239.652344 242.320312 242.371094 C 239.601562 245.09375 237.015625 246.761719 233.410156 248.191406 C 230.6875 249.246094 226.574219 250.503906 218.988281 250.878906 C 210.789062 251.25 208.339844 251.320312 187.625 251.320312 C 166.90625 251.320312 164.457031 251.25 156.261719 250.878906 C 148.710938 250.535156 144.59375 249.277344 141.839844 248.191406 C 138.230469 246.796875 135.648438 245.09375 132.925781 242.371094 C 130.203125 239.652344 128.539062 237.066406 127.109375 233.460938 C 126.054688 230.738281 124.796875 226.625 124.421875 219.039062 C 124.046875 210.839844 123.980469 208.390625 123.980469 187.675781 C 123.980469 166.960938 124.046875 164.511719 124.421875 156.3125 C 124.761719 148.761719 126.019531 144.644531 127.109375 141.890625 C 128.503906 138.285156 130.203125 135.699219 132.925781 132.976562 C 135.648438 130.253906 138.230469 128.589844 141.839844 127.160156 C 144.558594 126.105469 148.675781 124.847656 156.261719 124.472656 C 164.457031 124.097656 166.90625 124.03125 187.625 124.03125 M 187.625 110.050781 C 166.535156 110.050781 163.914062 110.152344 155.613281 110.527344 C 147.347656 110.898438 141.703125 112.226562 136.769531 114.132812 C 131.667969 116.105469 127.347656 118.757812 123.027344 123.078125 C 118.742188 127.398438 116.085938 131.71875 114.113281 136.820312 C 112.210938 141.753906 110.882812 147.398438 110.507812 155.664062 C 110.136719 163.929688 110.03125 166.585938 110.03125 187.640625 C 110.03125 208.730469 110.136719 211.351562 110.507812 219.648438 C 110.882812 227.917969 112.210938 233.5625 114.113281 238.496094 C 116.085938 243.597656 118.742188 247.917969 123.0625 252.238281 C 127.382812 256.558594 131.703125 259.210938 136.804688 261.183594 C 141.734375 263.089844 147.382812 264.414062 155.648438 264.789062 C 163.914062 265.164062 166.566406 265.265625 187.65625 265.265625 C 208.746094 265.265625 211.367188 265.164062 219.667969 264.789062 C 227.933594 264.414062 233.578125 263.089844 238.511719 261.183594 C 243.613281 259.210938 247.933594 256.558594 252.253906 252.238281 C 256.574219 247.917969 259.226562 243.597656 261.199219 238.496094 C 263.105469 233.5625 264.433594 227.917969 264.808594 219.648438 C 265.179688 211.382812 265.28125 208.730469 265.28125 187.640625 C 265.28125 166.550781 265.179688 163.929688 264.808594 155.632812 C 264.433594 147.367188 263.105469 141.71875 261.199219 136.785156 C 259.226562 131.683594 256.574219 127.363281 252.253906 123.042969 C 247.933594 118.722656 243.613281 116.070312 238.511719 114.097656 C 233.578125 112.191406 227.933594 110.867188 219.667969 110.492188 C 211.367188 110.152344 208.714844 110.050781 187.625 110.050781 " fill-opacity="1" fill-rule="nonzero"/></g><path fill="#5271ff" d="M 187.625 147.808594 C 165.617188 147.808594 147.789062 165.632812 147.789062 187.640625 C 147.789062 209.648438 165.648438 227.507812 187.65625 227.507812 C 209.667969 227.507812 227.523438 209.683594 227.523438 187.640625 C 227.492188 165.632812 209.632812 147.808594 187.625 147.808594 M 187.625 213.527344 C 173.335938 213.527344 161.773438 201.960938 161.773438 187.675781 C 161.773438 173.386719 173.335938 161.824219 187.625 161.824219 C 201.910156 161.824219 213.476562 173.386719 213.476562 187.675781 C 213.511719 201.925781 201.910156 213.527344 187.625 213.527344 " fill-opacity="1" fill-rule="nonzero"/><path fill="#5271ff" d="M 238.375 146.242188 C 238.375 151.378906 234.191406 155.5625 229.054688 155.5625 C 223.917969 155.5625 219.734375 151.378906 219.734375 146.242188 C 219.734375 141.105469 223.917969 136.921875 229.054688 136.921875 C 234.191406 136.921875 238.375 141.074219 238.375 146.242188 " fill-opacity="1" fill-rule="nonzero"/></svg>