<svg xmlns="http://www.w3.org/2000/svg" xmlns:xlink="http://www.w3.org/1999/xlink" width="500" zoomAndPan="magnify" viewBox="0 0 375 374.999991" height="500" preserveAspectRatio="xMidYMid meet" version="1.0"><defs><clipPath id="9d82e544db"><path d="M 111.757812 104.921875 L 271.933594 104.921875 L 271.933594 265 L 111.757812 265 Z M 111.757812 104.921875 " clip-rule="nonzero"/></clipPath><clipPath id="32e36ffda2"><path d="M 261.222656 264.78125 L 122.152344 264.78125 C 116.425781 264.78125 111.757812 260.117188 111.757812 254.386719 L 111.757812 115.320312 C 111.757812 109.589844 116.425781 104.921875 122.152344 104.921875 L 261.222656 104.921875 C 266.949219 104.921875 271.617188 109.589844 271.617188 115.320312 L 271.617188 254.386719 C 271.617188 260.117188 266.949219 264.78125 261.222656 264.78125 " clip-rule="nonzero"/></clipPath><clipPath id="11b49c886d"><path d="M 114 157 L 132 157 L 132 170 L 114 170 Z M 114 157 " clip-rule="nonzero"/></clipPath><clipPath id="9ae3bcca7d"><path d="M 95.621094 172.382812 L 231.949219 108.136719 L 276.832031 203.378906 L 140.507812 267.625 Z M 95.621094 172.382812 " clip-rule="nonzero"/></clipPath><clipPath id="58587e7a0d"><path d="M 95.621094 172.382812 L 231.949219 108.136719 L 276.832031 203.378906 L 140.507812 267.625 Z M 95.621094 172.382812 " clip-rule="nonzero"/></clipPath><clipPath id="26533e5c5d"><path d="M 114 124 L 273 124 L 273 263 L 114 263 Z M 114 124 " clip-rule="nonzero"/></clipPath><clipPath id="7b6d74e6fd"><path d="M 95.621094 172.382812 L 231.949219 108.136719 L 276.832031 203.378906 L 140.507812 267.625 Z M 95.621094 172.382812 " clip-rule="nonzero"/></clipPath><clipPath id="b4e0ee8e80"><path d="M 95.621094 172.382812 L 231.949219 108.136719 L 276.832031 203.378906 L 140.507812 267.625 Z M 95.621094 172.382812 " clip-rule="nonzero"/></clipPath><clipPath id="159227aaa3"><path d="M 199 117 L 217 117 L 217 129 L 199 129 Z M 199 117 " clip-rule="nonzero"/></clipPath><clipPath id="56277fc7af"><path d="M 95.621094 172.382812 L 231.949219 108.136719 L 276.832031 203.378906 L 140.507812 267.625 Z M 95.621094 172.382812 " clip-rule="nonzero"/></clipPath><clipPath id="94f68334ba"><path d="M 95.621094 172.382812 L 231.949219 108.136719 L 276.832031 203.378906 L 140.507812 267.625 Z M 95.621094 172.382812 " clip-rule="nonzero"/></clipPath></defs><g clip-path="url(#9d82e544db)"><g clip-path="url(#32e36ffda2)"><path fill="#ea7600" d="M 111.757812 104.921875 L 271.933594 104.921875 L 271.933594 265.101562 L 111.757812 265.101562 Z M 111.757812 104.921875 " fill-opacity="1" fill-rule="nonzero"/></g></g><g clip-path="url(#11b49c886d)"><g clip-path="url(#9ae3bcca7d)"><g clip-path="url(#58587e7a0d)"><path fill="#ffffff" d="M 131.421875 161.304688 L 130.535156 159.429688 C 129.792969 157.851562 127.910156 157.171875 126.335938 157.910156 L 116.125 162.722656 C 114.554688 163.464844 113.878906 165.351562 114.625 166.929688 L 115.789062 169.40625 C 116.679688 168.105469 117.730469 166.933594 119.007812 165.921875 C 123.660156 162.238281 128.15625 161.328125 131.421875 161.304688 Z M 131.421875 161.304688 " fill-opacity="1" fill-rule="nonzero"/></g></g></g><g clip-path="url(#26533e5c5d)"><g clip-path="url(#7b6d74e6fd)"><g clip-path="url(#b4e0ee8e80)"><path fill="#ffffff" d="M 245.359375 148.148438 C 232.367188 131.988281 222.355469 122.390625 212.601562 124.476562 C 203.023438 126.53125 200.417969 133.558594 200.3125 133.855469 C 200.132812 134.351562 199.65625 134.6875 199.128906 134.675781 C 198.972656 134.675781 183.53125 134.503906 165.152344 143.164062 C 146.777344 151.824219 137.078125 163.84375 136.980469 163.964844 C 136.652344 164.382812 136.089844 164.535156 135.589844 164.351562 C 135.5 164.320312 134.722656 164.050781 133.472656 163.890625 C 130.761719 163.542969 125.792969 163.703125 120.539062 167.863281 C 112.71875 174.058594 113.75 187.890625 117.945312 208.195312 C 120.890625 222.453125 129.726562 243.6875 134.734375 255.074219 C 136.878906 259.957031 141.871094 262.890625 147.160156 262.371094 C 152.730469 261.828125 157.210938 257.570312 158.042969 252.019531 L 161.359375 229.945312 C 162.175781 224.519531 165.617188 219.878906 170.574219 217.542969 L 219.066406 194.691406 C 224.023438 192.355469 229.792969 192.648438 234.5 195.476562 L 253.632812 206.972656 C 258.441406 209.863281 264.574219 209.121094 268.546875 205.164062 C 272.308594 201.417969 273.226562 195.699219 270.824219 190.9375 C 265.230469 179.828125 254.480469 159.496094 245.359375 148.148438 Z M 128.472656 180.851562 L 137.222656 176.726562 L 142.050781 186.96875 L 139.652344 193.226562 L 133.300781 191.09375 Z M 136.4375 206.632812 L 126.226562 211.445312 L 124.15625 207.054688 L 122.089844 202.664062 L 132.300781 197.851562 L 138.550781 200.269531 Z M 155.890625 216.21875 L 151.511719 218.28125 L 147.136719 220.34375 L 142.308594 210.101562 L 144.707031 203.84375 L 151.0625 205.976562 Z M 160.203125 190.015625 L 162.269531 194.40625 L 152.058594 199.21875 L 145.808594 196.796875 L 147.921875 190.4375 L 158.132812 185.625 Z M 197.367188 181.355469 L 174.101562 192.316406 L 170.773438 185.253906 L 194.035156 174.289062 Z M 191.058594 167.96875 L 167.796875 178.929688 L 164.464844 171.867188 L 187.726562 160.902344 Z M 212.773438 172.667969 C 209.34375 174.285156 205.246094 172.804688 203.625 169.363281 C 202.003906 165.921875 203.46875 161.820312 206.902344 160.203125 C 210.332031 158.585938 214.429688 160.066406 216.050781 163.507812 C 217.671875 166.949219 216.207031 171.050781 212.773438 172.667969 Z M 231.492188 180.441406 C 228.0625 182.058594 223.964844 180.578125 222.34375 177.136719 C 220.71875 173.695312 222.1875 169.59375 225.617188 167.976562 C 229.050781 166.359375 233.144531 167.839844 234.769531 171.28125 C 236.390625 174.722656 234.925781 178.824219 231.492188 180.441406 Z M 219.257812 153.488281 C 215.824219 155.105469 211.730469 153.625 210.105469 150.183594 C 208.484375 146.742188 209.949219 142.640625 213.382812 141.023438 C 216.8125 139.40625 220.910156 140.886719 222.53125 144.328125 C 224.15625 147.769531 222.6875 151.871094 219.257812 153.488281 Z M 238.808594 160.867188 C 235.378906 162.484375 231.28125 161.003906 229.660156 157.5625 C 228.039062 154.121094 229.503906 150.019531 232.933594 148.402344 C 236.367188 146.785156 240.464844 148.265625 242.085938 151.707031 C 243.707031 155.148438 242.238281 159.25 238.808594 160.867188 Z M 238.808594 160.867188 " fill-opacity="1" fill-rule="nonzero"/></g></g></g><g clip-path="url(#159227aaa3)"><g clip-path="url(#56277fc7af)"><g clip-path="url(#94f68334ba)"><path fill="#ffffff" d="M 212.078125 122.058594 C 213.671875 121.71875 215.246094 121.652344 216.8125 121.796875 L 215.644531 119.320312 C 214.902344 117.742188 213.019531 117.058594 211.445312 117.800781 L 201.234375 122.613281 C 199.660156 123.355469 198.988281 125.242188 199.730469 126.820312 L 200.617188 128.695312 C 202.714844 126.191406 206.277344 123.300781 212.078125 122.058594 Z M 212.078125 122.058594 " fill-opacity="1" fill-rule="nonzero"/></g></g></g></svg>